<svg width="627" height="570" viewBox="0 0 627 570" fill="none" xmlns="http://www.w3.org/2000/svg">
<path d="M152.926 421.616H0V266.991L225.991 41H380.616V136.154L248.08 268.69V328.161L152.926 421.616Z" fill="white"/>
<path d="M474.074 41.0011L627 41.0011L627 195.626L401.009 421.617L246.384 421.617L246.384 326.463L378.92 193.927L378.92 134.456L474.074 41.0011Z" fill="white"/>
<path d="M524.443 569.393V491.309H476.66V468H627.001V491.309H579.218V569.393H524.443Z" fill="white"/>
<path fill-rule="evenodd" clip-rule="evenodd" d="M386.925 569.393H333.105L365.947 468H458.016L491.814 569.393H437.038L431.211 554.242H393.335L386.925 569.393ZM411.982 497.719L400.91 530.933H423.053L411.982 497.719Z" fill="white"/>
<path d="M320.493 569.393H180.641V468H320.493V491.309H236.581V507.625H320.493V529.768H236.581V546.084H320.493V569.393Z" fill="white"/>
<path d="M0 569.393V468H55.9408V507.625H108.385V468H164.326V569.393H108.385V530.351L55.9408 529.768V569.393H0Z" fill="white"/>
<path d="M599.786 10.1611L596.714 0.096465H592.502V21.8897H596.513L596.551 11.4794L599.724 21.8897H603.734V0.096465H599.833L599.786 10.1611ZM616.681 0.096465H611.926L609.133 6.23812V0.096465H605.2V21.8897H609.017L609.032 12.7817L612.407 21.8897H616.805L611.918 9.05975L616.681 0.096465ZM624.399 10.7479C623.809 10.1691 623.406 9.76717 623.018 9.41346C622.669 9.09995 622.328 8.81859 621.979 8.47292C621.482 7.98255 620.551 6.72045 620.497 5.83618C620.466 5.31366 620.396 4.89564 620.846 4.26861C621.056 3.97921 621.343 3.87471 621.606 3.87471C621.668 3.87471 621.73 3.87471 621.785 3.89079C622.219 3.97118 622.599 4.39724 622.739 5.08054L622.933 6.26224L626.749 5.69952C626.718 5.39405 626.741 4.30077 626.501 3.64159C625.849 1.8007 624.461 0.514483 622.7 0.12058C622.328 0.0401923 621.948 0 621.567 0C620.885 0 620.163 0.128621 619.396 0.385863C618.085 0.88427 616.347 2.8377 616.417 5.33778C616.448 6.57576 616.44 7.65296 617.262 9.0276C618.364 10.8765 620.055 12.2753 621.777 13.9634C622.522 14.695 623.165 15.9812 622.661 17.1629C622.452 17.6533 622.033 17.9668 621.567 17.9668C621.288 17.9668 621.001 17.8542 620.73 17.605C619.939 16.8815 620.024 15.6677 619.923 15.0406L616.045 15.121C616.014 17.806 617.146 20.0247 618.488 21.1019C619.822 22.1791 622.366 22.2113 623.887 21.6003C624.926 21.1823 626.703 19.1646 626.966 16.8172C627.253 14.3091 625.648 11.9537 624.407 10.7399L624.399 10.7479ZM588.034 0.096465L591.533 21.8897H587.383L586.677 16.777H584.567L583.752 21.8897H579.61L583.186 0.096465H588.034ZM586.204 13.1435L585.591 8.69801L584.846 13.1435H586.204ZM581.123 0.096465H571V4.26861H574.111V21.8897H578.105V4.26861H581.131V0.096465H581.123Z" fill="white"/>
<path d="M524.089 17.6519H529.281V21.9919H520.05V0H524.089V17.6438V17.6519ZM489.608 9.39381L488.495 0H484.337L483.335 9.39381L482.277 0H478L481.506 21.9919H485.338L486.507 14.0988L487.803 21.9919H491.627L494.823 0H490.594L489.592 9.39381H489.608ZM515.996 12.5575L518.532 21.9919H514.262L512.108 14.0583H511.05V21.9919H507.242V0H512.322C515.511 0.170354 517.292 1.81711 517.721 5.15118L517.745 9.09366C517.753 10.424 516.608 11.9004 515.996 12.5575ZM513.769 5.32965C513.769 4.8997 513.3 4.35619 512.831 4.35619H511.066V9.73451H512.481C513.189 9.73451 513.769 9.19912 513.769 8.55015V5.32153V5.32965ZM505.716 5.67035L505.755 16.8894C505.755 18.5929 504.658 20.1261 504.221 20.5479C503.195 21.5538 502.233 21.9919 500.778 21.9919C500.715 21.9919 500.643 21.9919 500.58 21.9919C499.005 21.9513 498.266 21.635 497.01 20.5317C496.143 19.7773 495.42 18.455 495.42 16.5162V5.62979C495.42 4.59956 495.658 3.13127 496.453 2.16593C497.256 1.18436 498.361 0 500.587 0C500.587 0 500.595 0 500.603 0C503.434 0.00811209 505.716 2.49853 505.723 5.67035H505.716ZM501.756 5.25664C501.756 4.59144 501.216 4.05605 500.548 4.05605C499.888 4.05605 499.339 4.59956 499.339 5.25664V16.6217C499.339 17.2788 499.88 17.8223 500.548 17.8223C501.208 17.8223 501.756 17.2788 501.756 16.6217V5.25664ZM541 5.65413L540.968 16.3945C541.103 18.674 539.513 21.9594 535.936 22H530.847V0.00811073H536.222C538.758 0.00811073 541.143 2.43363 540.992 5.66224L541 5.65413ZM537.223 5.49189C537.223 4.85103 536.746 4.33186 536.158 4.33186H534.735V17.6925H536.158C536.746 17.6925 537.223 17.1733 537.223 16.5324V5.49189Z" fill="white"/>
<path d="M555.163 16.545C555.338 19.3144 552.798 21.988 549.851 21.988C546.903 21.988 544.795 19.0627 545.016 16.0414L545.074 5.26321C545.132 2.26594 547.031 0 550.13 0H550.177C552.542 0.0119891 555.35 2.194 555.175 5.21526V16.521L555.163 16.545ZM551.039 5.2752C551.039 4.73569 550.596 4.28011 550.072 4.28011C549.548 4.28011 549.105 4.7237 549.105 5.2752V16.2932C549.105 16.8447 549.548 17.2883 550.072 17.2883C550.596 17.2883 551.039 16.8327 551.039 16.2932V5.2752ZM557.342 21.988H561.583V12.9362H565.544V8.95586H561.536V4.69973H567V0.299727L557.354 0.323706L557.33 22L557.342 21.988Z" fill="white"/>
</svg>
