<svg width="1326" height="381" viewBox="0 0 1326 381" fill="none" xmlns="http://www.w3.org/2000/svg">
<path d="M152.926 380.616H0V225.991L225.991 0H380.616V95.154L248.08 227.69V287.161L152.926 380.616Z" fill="white"/>
<path d="M474.074 0.001112L627 0.00109863L627 154.626L401.009 380.617L246.384 380.617L246.384 285.463L378.92 152.927L378.92 93.456L474.074 0.001112Z" fill="white"/>
<path d="M1211.48 381V293.977H1158.23V268H1325.78V293.977H1272.53V381H1211.48Z" fill="white"/>
<path fill-rule="evenodd" clip-rule="evenodd" d="M1058.22 381H998.238L1034.84 268H1137.45L1175.12 381H1114.07L1107.58 364.115H1065.36L1058.22 381ZM1086.14 301.121L1073.81 338.138H1098.48L1086.14 301.121Z" fill="white"/>
<path d="M984.182 381H828.32V268H984.182V293.977H890.665V312.161H984.182V336.839H890.665V355.023H984.182V381Z" fill="white"/>
<path d="M627 381V268H689.345V312.161H747.793V268H810.138V381H747.793V337.489L689.345 336.839V381H627Z" fill="white"/>
<path d="M1293.86 245.085L1290.51 234.105H1285.91V257.88H1290.29L1290.33 246.523L1293.79 257.88H1298.16V234.105H1293.91L1293.86 245.085ZM1312.29 234.105H1307.1L1304.05 240.805V234.105H1299.76V257.88H1303.93L1303.94 247.944L1307.62 257.88H1312.42L1307.09 243.883L1312.29 234.105ZM1320.71 245.725C1320.06 245.094 1319.62 244.655 1319.2 244.269C1318.82 243.927 1318.45 243.62 1318.07 243.243C1317.52 242.708 1316.51 241.331 1316.45 240.367C1316.42 239.797 1316.34 239.341 1316.83 238.657C1317.06 238.341 1317.37 238.227 1317.66 238.227C1317.73 238.227 1317.8 238.227 1317.85 238.244C1318.33 238.332 1318.74 238.797 1318.9 239.542L1319.11 240.832L1323.27 240.218C1323.24 239.884 1323.26 238.692 1323 237.973C1322.29 235.964 1320.77 234.561 1318.85 234.132C1318.45 234.044 1318.03 234 1317.62 234C1316.87 234 1316.09 234.14 1315.25 234.421C1313.82 234.965 1311.92 237.096 1312 239.823C1312.03 241.174 1312.02 242.349 1312.92 243.848C1314.12 245.865 1315.97 247.391 1317.85 249.233C1318.66 250.031 1319.36 251.434 1318.81 252.723C1318.58 253.258 1318.13 253.6 1317.62 253.6C1317.31 253.6 1317 253.477 1316.7 253.205C1315.84 252.416 1315.93 251.092 1315.82 250.408L1311.59 250.496C1311.56 253.425 1312.79 255.845 1314.26 257.02C1315.71 258.195 1318.49 258.23 1320.15 257.564C1321.28 257.108 1323.22 254.907 1323.51 252.346C1323.82 249.61 1322.07 247.04 1320.71 245.716L1320.71 245.725ZM1281.04 234.105L1284.85 257.88H1280.33L1279.56 252.302H1277.25L1276.36 257.88H1271.85L1275.75 234.105H1281.04ZM1279.04 248.338L1278.37 243.489L1277.56 248.338H1279.04ZM1273.5 234.105H1262.45V238.657H1265.85V257.88H1270.2V238.657H1273.5V234.105H1273.5Z" fill="white"/>
<path d="M1211.28 253.257H1216.94V257.991H1206.87V234H1211.28V253.248V253.257ZM1173.66 244.248L1172.45 234H1167.91L1166.82 244.248L1165.67 234H1161L1164.82 257.991H1169.01L1170.28 249.381L1171.69 257.991H1175.87L1179.35 234H1174.74L1173.65 244.248H1173.66ZM1202.45 247.699L1205.22 257.991H1200.56L1198.21 249.336H1197.05V257.991H1192.9V234H1198.44C1201.92 234.186 1203.86 235.982 1204.33 239.619L1204.36 243.92C1204.37 245.372 1203.12 246.982 1202.45 247.699ZM1200.02 239.814C1200.02 239.345 1199.51 238.752 1199 238.752H1197.07V244.619H1198.62C1199.39 244.619 1200.02 244.035 1200.02 243.327V239.805V239.814ZM1191.24 240.186L1191.28 252.425C1191.28 254.283 1190.08 255.956 1189.6 256.416C1188.49 257.513 1187.44 257.991 1185.85 257.991C1185.78 257.991 1185.7 257.991 1185.63 257.991C1183.91 257.947 1183.11 257.602 1181.74 256.398C1180.79 255.575 1180 254.133 1180 252.018V240.142C1180 239.018 1180.26 237.416 1181.13 236.363C1182.01 235.292 1183.21 234 1185.64 234C1185.64 234 1185.65 234 1185.66 234C1188.75 234.009 1191.24 236.726 1191.24 240.186H1191.24ZM1186.92 239.735C1186.92 239.009 1186.33 238.425 1185.6 238.425C1184.88 238.425 1184.28 239.018 1184.28 239.735V252.133C1184.28 252.85 1184.87 253.442 1185.6 253.442C1186.32 253.442 1186.92 252.85 1186.92 252.133V239.735ZM1229.73 240.168L1229.69 251.885C1229.84 254.372 1228.11 257.956 1224.2 258H1218.65V234.009H1224.51C1227.28 234.009 1229.88 236.655 1229.72 240.177L1229.73 240.168ZM1225.61 239.991C1225.61 239.292 1225.09 238.726 1224.45 238.726H1222.89V253.301H1224.45C1225.09 253.301 1225.61 252.735 1225.61 252.035V239.991Z" fill="white"/>
<path d="M1245.18 252.049C1245.37 255.07 1242.6 257.987 1239.38 257.987C1236.17 257.987 1233.87 254.796 1234.11 251.5L1234.17 239.742C1234.23 236.472 1236.31 234 1239.69 234H1239.74C1242.32 234.013 1245.38 236.393 1245.19 239.689V252.023L1245.18 252.049ZM1240.68 239.755C1240.68 239.166 1240.2 238.669 1239.62 238.669C1239.05 238.669 1238.57 239.153 1238.57 239.755V251.774C1238.57 252.376 1239.05 252.86 1239.62 252.86C1240.2 252.86 1240.68 252.363 1240.68 251.774V239.755ZM1247.55 257.987H1252.18V248.112H1256.5V243.77H1252.13V239.127H1258.09V234.327L1247.57 234.353L1247.54 258L1247.55 257.987Z" fill="white"/>
</svg>
